<svg width="21" height="63" viewBox="0 0 21 63" fill="none" xmlns="http://www.w3.org/2000/svg">
<path d="M19.724 22.7C19.724 23.9 19.4907 24.9667 19.024 25.9C18.5907 26.8333 18.0407 27.7 17.374 28.5C16.7074 29.2667 15.974 30.0167 15.174 30.75C14.374 31.45 13.624 32.1833 12.924 32.95C12.2574 33.6833 11.674 34.5 11.174 35.4C10.7074 36.2667 10.4407 37.2667 10.374 38.4H8.07402C7.97402 37.9 7.92402 37.4333 7.92402 37C7.92402 35.6333 8.29069 34.4167 9.02402 33.35C9.75736 32.25 10.574 31.1667 11.474 30.1C12.374 29.0333 13.1907 27.9167 13.924 26.75C14.6574 25.5833 15.024 24.2167 15.024 22.65C15.024 21.65 14.8574 20.8 14.524 20.1C14.224 19.4 13.824 18.85 13.324 18.45C12.824 18.0167 12.2574 17.7 11.624 17.5C10.9907 17.3 10.3574 17.2 9.72402 17.2C9.12402 17.2 8.54069 17.3 7.97402 17.5C7.44069 17.7 6.95736 17.9833 6.52402 18.35C6.12402 18.6833 5.79069 19.1 5.52402 19.6C5.25736 20.0667 5.12402 20.6 5.12402 21.2C5.12402 21.9333 5.45736 22.7167 6.12402 23.55C6.79069 24.3833 7.85736 24.9167 9.32402 25.15C9.05736 25.85 8.62402 26.3833 8.02402 26.75C7.45736 27.0833 6.82402 27.25 6.12402 27.25C5.55736 27.25 4.97402 27.15 4.37402 26.95C3.80736 26.7167 3.29069 26.3833 2.82402 25.95C2.35736 25.4833 1.97402 24.9167 1.67402 24.25C1.40736 23.5833 1.27402 22.8167 1.27402 21.95C1.27402 21.15 1.42402 20.35 1.72402 19.55C2.05736 18.7167 2.57402 17.9667 3.27402 17.3C3.97402 16.6333 4.89069 16.0833 6.02402 15.65C7.15736 15.2167 8.55736 15 10.224 15C11.824 15 13.2074 15.2 14.374 15.6C15.574 16 16.574 16.55 17.374 17.25C18.174 17.95 18.7574 18.7667 19.124 19.7C19.524 20.6333 19.724 21.6333 19.724 22.7ZM5.92402 46.95C5.92402 46.05 6.24069 45.2667 6.87402 44.6C7.50736 43.9333 8.29069 43.6 9.22402 43.6C10.124 43.6 10.9074 43.9333 11.574 44.6C12.2407 45.2667 12.574 46.05 12.574 46.95C12.574 47.8833 12.2407 48.6667 11.574 49.3C10.9074 49.9333 10.124 50.25 9.22402 50.25C8.29069 50.25 7.50736 49.9333 6.87402 49.3C6.24069 48.6667 5.92402 47.8833 5.92402 46.95Z" fill="#00CEC9"/>
</svg>
