<svg width="185" height="63" viewBox="0 0 185 63" fill="none" xmlns="http://www.w3.org/2000/svg">
<path d="M19.724 22.7C19.724 23.9 19.4907 24.9667 19.024 25.9C18.5907 26.8333 18.0407 27.7 17.374 28.5C16.7074 29.2667 15.974 30.0167 15.174 30.75C14.374 31.45 13.624 32.1833 12.924 32.95C12.2574 33.6833 11.674 34.5 11.174 35.4C10.7074 36.2667 10.4407 37.2667 10.374 38.4H8.07402C7.97402 37.9 7.92402 37.4333 7.92402 37C7.92402 35.6333 8.29069 34.4167 9.02402 33.35C9.75736 32.25 10.574 31.1667 11.474 30.1C12.374 29.0333 13.1907 27.9167 13.924 26.75C14.6574 25.5833 15.024 24.2167 15.024 22.65C15.024 21.65 14.8574 20.8 14.524 20.1C14.224 19.4 13.824 18.85 13.324 18.45C12.824 18.0167 12.2574 17.7 11.624 17.5C10.9907 17.3 10.3574 17.2 9.72402 17.2C9.12402 17.2 8.54069 17.3 7.97402 17.5C7.44069 17.7 6.95736 17.9833 6.52402 18.35C6.12402 18.6833 5.79069 19.1 5.52402 19.6C5.25736 20.0667 5.12402 20.6 5.12402 21.2C5.12402 21.9333 5.45736 22.7167 6.12402 23.55C6.79069 24.3833 7.85736 24.9167 9.32402 25.15C9.05736 25.85 8.62402 26.3833 8.02402 26.75C7.45736 27.0833 6.82402 27.25 6.12402 27.25C5.55736 27.25 4.97402 27.15 4.37402 26.95C3.80736 26.7167 3.29069 26.3833 2.82402 25.95C2.35736 25.4833 1.97402 24.9167 1.67402 24.25C1.40736 23.5833 1.27402 22.8167 1.27402 21.95C1.27402 21.15 1.42402 20.35 1.72402 19.55C2.05736 18.7167 2.57402 17.9667 3.27402 17.3C3.97402 16.6333 4.89069 16.0833 6.02402 15.65C7.15736 15.2167 8.55736 15 10.224 15C11.824 15 13.2074 15.2 14.374 15.6C15.574 16 16.574 16.55 17.374 17.25C18.174 17.95 18.7574 18.7667 19.124 19.7C19.524 20.6333 19.724 21.6333 19.724 22.7ZM5.92402 46.95C5.92402 46.05 6.24069 45.2667 6.87402 44.6C7.50736 43.9333 8.29069 43.6 9.22402 43.6C10.124 43.6 10.9074 43.9333 11.574 44.6C12.2407 45.2667 12.574 46.05 12.574 46.95C12.574 47.8833 12.2407 48.6667 11.574 49.3C10.9074 49.9333 10.124 50.25 9.22402 50.25C8.29069 50.25 7.50736 49.9333 6.87402 49.3C6.24069 48.6667 5.92402 47.8833 5.92402 46.95Z" fill="#00CEC9"/>
<path d="M26.0138 25.5792V22.8182H40.5202V25.5792H34.9006V41H31.6335V25.5792H26.0138ZM45.2433 41.2752C44.3791 41.2752 43.6009 41.1213 42.9084 40.8136C42.2218 40.4999 41.6773 40.0382 41.2749 39.4286C40.8783 38.819 40.68 38.0674 40.68 37.1737C40.68 36.4042 40.8221 35.768 41.1062 35.2649C41.3903 34.7618 41.7779 34.3594 42.2692 34.0575C42.7604 33.7557 43.3138 33.5278 43.9293 33.3739C44.5508 33.2141 45.1929 33.0987 45.8558 33.0277C46.6548 32.9448 47.3029 32.8709 47.8001 32.8058C48.2972 32.7347 48.6583 32.6282 48.8832 32.4862C49.114 32.3382 49.2294 32.1103 49.2294 31.8026V31.7493C49.2294 31.0805 49.0311 30.5626 48.6346 30.1957C48.238 29.8287 47.6669 29.6452 46.9212 29.6452C46.134 29.6452 45.5096 29.8169 45.0479 30.1602C44.5922 30.5034 44.2844 30.9089 44.1246 31.3764L41.1239 30.9503C41.3607 30.1217 41.7513 29.4292 42.2958 28.8729C42.8403 28.3106 43.5062 27.8904 44.2933 27.6122C45.0805 27.3281 45.9505 27.1861 46.9034 27.1861C47.5604 27.1861 48.2144 27.263 48.8654 27.4169C49.5165 27.5708 50.1113 27.8253 50.6499 28.1804C51.1884 28.5296 51.6205 29.006 51.946 29.6097C52.2775 30.2134 52.4432 30.968 52.4432 31.8736V41H49.3537V39.1268H49.2472C49.0518 39.5056 48.7766 39.8607 48.4215 40.1921C48.0723 40.5176 47.6314 40.781 47.0987 40.9822C46.572 41.1776 45.9535 41.2752 45.2433 41.2752ZM46.0778 38.9137C46.7229 38.9137 47.2822 38.7865 47.7557 38.532C48.2292 38.2715 48.5932 37.9283 48.8477 37.5021C49.1081 37.076 49.2383 36.6114 49.2383 36.1083V34.5014C49.1377 34.5843 48.966 34.6612 48.7234 34.7322C48.4866 34.8033 48.2203 34.8654 47.9244 34.9187C47.6284 34.9719 47.3355 35.0193 47.0455 35.0607C46.7554 35.1022 46.5039 35.1377 46.2908 35.1673C45.8114 35.2324 45.3823 35.3389 45.0036 35.4869C44.6248 35.6348 44.3259 35.842 44.1069 36.1083C43.8879 36.3687 43.7784 36.7061 43.7784 37.1204C43.7784 37.7122 43.9944 38.1591 44.4265 38.4609C44.8585 38.7628 45.409 38.9137 46.0778 38.9137ZM58.8885 33.0099V41H55.6747V27.3636H58.7464V29.6808H58.9062C59.2199 28.9173 59.7201 28.3106 60.4066 27.8608C61.0991 27.411 61.9543 27.1861 62.9723 27.1861C63.9134 27.1861 64.7331 27.3873 65.4315 27.7898C66.1358 28.1922 66.6803 28.7752 67.065 29.5387C67.4556 30.3022 67.648 31.2285 67.642 32.3175V41H64.4283V32.8146C64.4283 31.9032 64.1915 31.19 63.718 30.6751C63.2505 30.1602 62.6024 29.9027 61.7738 29.9027C61.2115 29.9027 60.7114 30.027 60.2734 30.2756C59.8414 30.5182 59.5011 30.8704 59.2525 31.332C59.0098 31.7937 58.8885 32.353 58.8885 33.0099ZM72.4183 46.1136C71.9804 46.1136 71.5749 46.0781 71.2021 46.0071C70.8351 45.942 70.5421 45.8651 70.3232 45.7763L71.0689 43.2727C71.5365 43.4089 71.9537 43.474 72.3207 43.468C72.6876 43.4621 73.0102 43.3467 73.2884 43.1218C73.5724 42.9028 73.8121 42.5359 74.0075 42.021L74.2827 41.2841L69.3377 27.3636H72.7468L75.8896 37.6619H76.0316L79.1832 27.3636H82.6012L77.1413 42.6513C76.8868 43.3733 76.5495 43.9918 76.1293 44.5067C75.709 45.0276 75.1941 45.4241 74.5845 45.6964C73.9808 45.9746 73.2588 46.1136 72.4183 46.1136ZM88.3585 41.2752C87.4944 41.2752 86.7161 41.1213 86.0236 40.8136C85.3371 40.4999 84.7926 40.0382 84.3901 39.4286C83.9935 38.819 83.7953 38.0674 83.7953 37.1737C83.7953 36.4042 83.9373 35.768 84.2214 35.2649C84.5055 34.7618 84.8932 34.3594 85.3844 34.0575C85.8757 33.7557 86.429 33.5278 87.0446 33.3739C87.666 33.2141 88.3082 33.0987 88.9711 33.0277C89.7701 32.9448 90.4181 32.8709 90.9153 32.8058C91.4125 32.7347 91.7735 32.6282 91.9984 32.4862C92.2292 32.3382 92.3446 32.1103 92.3446 31.8026V31.7493C92.3446 31.0805 92.1464 30.5626 91.7498 30.1957C91.3533 29.8287 90.7821 29.6452 90.0364 29.6452C89.2492 29.6452 88.6248 29.8169 88.1632 30.1602C87.7074 30.5034 87.3997 30.9089 87.2399 31.3764L84.2392 30.9503C84.4759 30.1217 84.8665 29.4292 85.411 28.8729C85.9556 28.3106 86.6214 27.8904 87.4086 27.6122C88.1957 27.3281 89.0658 27.1861 90.0186 27.1861C90.6756 27.1861 91.3296 27.263 91.9806 27.4169C92.6317 27.5708 93.2265 27.8253 93.7651 28.1804C94.3037 28.5296 94.7357 29.006 95.0613 29.6097C95.3927 30.2134 95.5584 30.968 95.5584 31.8736V41H92.4689V39.1268H92.3624C92.1671 39.5056 91.8919 39.8607 91.5368 40.1921C91.1876 40.5176 90.7466 40.781 90.214 40.9822C89.6872 41.1776 89.0687 41.2752 88.3585 41.2752ZM89.193 38.9137C89.8381 38.9137 90.3974 38.7865 90.8709 38.532C91.3444 38.2715 91.7084 37.9283 91.9629 37.5021C92.2233 37.076 92.3535 36.6114 92.3535 36.1083V34.5014C92.2529 34.5843 92.0813 34.6612 91.8386 34.7322C91.6019 34.8033 91.3355 34.8654 91.0396 34.9187C90.7437 34.9719 90.4507 35.0193 90.1607 35.0607C89.8707 35.1022 89.6191 35.1377 89.4061 35.1673C88.9267 35.2324 88.4976 35.3389 88.1188 35.4869C87.74 35.6348 87.4411 35.842 87.2221 36.1083C87.0031 36.3687 86.8936 36.7061 86.8936 37.1204C86.8936 37.7122 87.1097 38.1591 87.5417 38.4609C87.9738 38.7628 88.5242 38.9137 89.193 38.9137ZM111.294 41H105.133V22.8182H111.419C113.224 22.8182 114.775 23.1822 116.071 23.9102C117.373 24.6322 118.373 25.6709 119.071 27.0263C119.77 28.3816 120.119 30.0033 120.119 31.8913C120.119 33.7853 119.767 35.4129 119.062 36.7741C118.364 38.1354 117.355 39.18 116.035 39.908C114.721 40.636 113.141 41 111.294 41ZM108.427 38.1502H111.135C112.401 38.1502 113.458 37.9194 114.304 37.4577C115.15 36.9902 115.787 36.2947 116.213 35.3714C116.639 34.4422 116.852 33.2822 116.852 31.8913C116.852 30.5005 116.639 29.3464 116.213 28.429C115.787 27.5057 115.156 26.8162 114.322 26.3604C113.493 25.8988 112.463 25.668 111.232 25.668H108.427V38.1502ZM129.055 41.2663C127.723 41.2663 126.569 40.9734 125.592 40.3874C124.616 39.8015 123.858 38.9818 123.319 37.9283C122.787 36.8748 122.52 35.6437 122.52 34.2351C122.52 32.8265 122.787 31.5924 123.319 30.533C123.858 29.4736 124.616 28.6509 125.592 28.065C126.569 27.479 127.723 27.1861 129.055 27.1861C130.386 27.1861 131.54 27.479 132.517 28.065C133.493 28.6509 134.248 29.4736 134.781 30.533C135.319 31.5924 135.589 32.8265 135.589 34.2351C135.589 35.6437 135.319 36.8748 134.781 37.9283C134.248 38.9818 133.493 39.8015 132.517 40.3874C131.54 40.9734 130.386 41.2663 129.055 41.2663ZM129.072 38.6918C129.794 38.6918 130.398 38.4935 130.883 38.0969C131.369 37.6945 131.73 37.1559 131.966 36.4812C132.209 35.8065 132.33 35.0548 132.33 34.2262C132.33 33.3917 132.209 32.6371 131.966 31.9624C131.73 31.2817 131.369 30.7402 130.883 30.3377C130.398 29.9353 129.794 29.734 129.072 29.734C128.332 29.734 127.717 29.9353 127.226 30.3377C126.74 30.7402 126.376 31.2817 126.134 31.9624C125.897 32.6371 125.779 33.3917 125.779 34.2262C125.779 35.0548 125.897 35.8065 126.134 36.4812C126.376 37.1559 126.74 37.6945 127.226 38.0969C127.717 38.4935 128.332 38.6918 129.072 38.6918ZM141.246 36.7209L141.237 32.8413H141.752L146.653 27.3636H150.408L144.38 34.0753H143.714L141.246 36.7209ZM138.316 41V22.8182H141.53V41H138.316ZM146.875 41L142.436 34.7944L144.602 32.5305L150.719 41H146.875ZM159.359 27.3636V29.8494H151.52V27.3636H159.359ZM153.455 24.0966H156.669V36.8984C156.669 37.3305 156.734 37.6619 156.864 37.8928C157 38.1177 157.178 38.2715 157.397 38.3544C157.616 38.4373 157.859 38.4787 158.125 38.4787C158.326 38.4787 158.51 38.4639 158.675 38.4343C158.847 38.4047 158.977 38.3781 159.066 38.3544L159.608 40.8668C159.436 40.926 159.19 40.9911 158.871 41.0621C158.557 41.1332 158.172 41.1746 157.717 41.1864C156.912 41.2101 156.187 41.0888 155.542 40.8224C154.896 40.5502 154.384 40.13 154.006 39.5618C153.633 38.9936 153.449 38.2834 153.455 37.4311V24.0966ZM167.937 41.2663C166.57 41.2663 165.389 40.9822 164.395 40.4141C163.407 39.84 162.646 39.0291 162.113 37.9815C161.581 36.928 161.314 35.6881 161.314 34.2617C161.314 32.859 161.581 31.628 162.113 30.5685C162.652 29.5032 163.404 28.6746 164.368 28.0827C165.333 27.485 166.466 27.1861 167.769 27.1861C168.609 27.1861 169.402 27.3222 170.148 27.5945C170.899 27.8608 171.562 28.2751 172.136 28.8374C172.716 29.3996 173.172 30.1158 173.504 30.9858C173.835 31.8499 174.001 32.8797 174.001 34.0753V35.0607H162.824V32.8945H170.92C170.914 32.279 170.781 31.7315 170.521 31.2521C170.26 30.7668 169.896 30.3851 169.429 30.1069C168.967 29.8287 168.428 29.6896 167.813 29.6896C167.156 29.6896 166.579 29.8494 166.082 30.169C165.585 30.4827 165.197 30.897 164.919 31.4119C164.647 31.9209 164.507 32.4802 164.502 33.0898V34.9808C164.502 35.7739 164.647 36.4545 164.937 37.0227C165.227 37.585 165.632 38.017 166.153 38.3189C166.674 38.6148 167.283 38.7628 167.982 38.7628C168.449 38.7628 168.872 38.6977 169.251 38.5675C169.63 38.4313 169.958 38.2331 170.237 37.9727C170.515 37.7122 170.725 37.3897 170.867 37.005L173.868 37.3423C173.678 38.1354 173.317 38.8279 172.785 39.4197C172.258 40.0057 171.583 40.4614 170.76 40.7869C169.938 41.1065 168.997 41.2663 167.937 41.2663ZM176.72 41V27.3636H179.836V29.6364H179.978C180.226 28.8492 180.653 28.2425 181.256 27.8164C181.866 27.3844 182.561 27.1683 183.343 27.1683C183.52 27.1683 183.718 27.1772 183.937 27.195C184.162 27.2068 184.349 27.2275 184.497 27.2571V30.2134C184.36 30.1661 184.144 30.1246 183.849 30.0891C183.559 30.0477 183.277 30.027 183.005 30.027C182.419 30.027 181.892 30.1542 181.425 30.4087C180.963 30.6573 180.599 31.0036 180.333 31.4474C180.067 31.8913 179.933 32.4033 179.933 32.9833V41H176.72Z" fill="#00CEC9"/>
</svg>
